<?xml version="1.0" encoding="iso-8859-1"?>
<!-- Generator: Adobe Illustrator 19.0.0, SVG Export Plug-In . SVG Version: 6.00 Build 0)  -->
<svg version="1.1" id="Capa_1" xmlns="http://www.w3.org/2000/svg" xmlns:xlink="http://www.w3.org/1999/xlink" x="0px" y="0px"
	 viewBox="0 0 512 512" style="enable-background:new 0 0 512 512;" xml:space="preserve">
<path style="fill:#5C6D7D;" d="M441.487,79.999c-0.644-2.421-2.835-4.106-5.34-4.106H256.362h-0.723H75.853
	c-2.505,0-4.696,1.685-5.34,4.106L54.578,139.92c-0.933,3.507,1.711,6.946,5.34,6.946h195.72h0.723h195.72
	c3.629,0,6.273-3.439,5.34-6.946L441.487,79.999z"/>
<path style="fill:#53616D;" d="M452.08,146.87H405l-18.05-70.98h49.2c2.5,0,4.69,1.69,5.34,4.11l15.93,59.92
	C458.36,143.43,455.71,146.87,452.08,146.87z"/>
<path style="fill:#5C6D7D;" d="M75.82,146.865l28.477,332.032c1.24,14.458,13.337,25.562,27.848,25.562H381.54
	c14.511,0,26.608-11.104,27.848-25.562l28.477-332.032L75.82,146.865L75.82,146.865z"/>
<path style="fill:#53616D;" d="M437.866,146.868l-28.484,332.031c-1.237,14.458-13.332,25.559-27.841,25.559h-33.019
	c14.509,0,26.604-11.1,27.841-25.559l28.484-332.031L437.866,146.868L437.866,146.868z"/>
<path style="fill:#5C6D7D;" d="M186.527,75.893h37.187v-3.917c0-17.831,14.455-32.286,32.286-32.286l0,0
	c17.831,0,32.286,14.455,32.286,32.286v3.917h37.187c0-36.765-29.804-68.352-66.569-68.352h-5.809
	C216.331,7.541,186.527,39.128,186.527,75.893z"/>
<path d="M464.71,137.981l-15.936-59.92c-1.519-5.717-6.712-9.709-12.628-9.709H332.769C329.818,30.171,297.829,0,258.905,0h-5.809
	c-38.925,0-70.914,30.171-73.865,68.352H147.17c-4.165,0-7.541,3.376-7.541,7.541s3.376,7.541,7.541,7.541h287.428l14.864,55.891
	h-11.598H75.819h-13.28l14.864-55.891h17.726c4.165,0,7.541-3.376,7.541-7.541s-3.376-7.541-7.541-7.541H75.853
	c-5.915,0-11.108,3.992-12.628,9.708L47.29,137.982c-1.051,3.953-0.223,8.079,2.27,11.322c2.493,3.242,6.269,5.102,10.359,5.102
	h8.979l27.885,325.136C98.37,498.046,113.572,512,132.144,512h249.395c18.572,0,33.774-13.954,35.361-32.458l18.399-214.531
	c0.356-4.15-2.719-7.802-6.869-8.158c-4.149-0.351-7.802,2.719-8.158,6.869l-18.399,214.531
	c-0.913,10.641-9.654,18.666-20.334,18.666H132.144c-10.68,0-19.422-8.024-20.334-18.665L84.035,154.406h345.613l-4.961,57.841
	c-0.356,4.149,2.719,7.802,6.869,8.158c4.156,0.354,7.802-2.72,8.158-6.869l5.072-59.131h7.297c4.09,0,7.865-1.86,10.358-5.102
	C464.934,146.062,465.761,141.935,464.71,137.981z M253.096,15.082h5.809c29.994,0,54.834,22.488,58.549,51.487h-21.992
	c-2.646-19.412-19.334-34.42-39.461-34.42s-36.815,15.007-39.462,34.42h-21.992C198.262,37.569,223.102,15.082,253.096,15.082z
	 M256,47.231c12.414,0,22.719,9.189,24.478,21.121h-48.955C233.282,56.42,243.586,47.231,256,47.231z"/>
<path d="M146.525,182.859c-4.149,0.356-7.225,4.009-6.869,8.158l23.206,270.579c0.337,3.93,3.632,6.897,7.505,6.897
	c0.216,0,0.433-0.009,0.653-0.028c4.149-0.356,7.225-4.008,6.869-8.158l-23.206-270.579
	C154.327,185.579,150.677,182.509,146.525,182.859z"/>
<path d="M357.317,189.729l-23.206,270.579c-0.356,4.15,2.719,7.802,6.869,8.158c0.219,0.019,0.436,0.028,0.652,0.028
	c3.873,0,7.168-2.967,7.505-6.897l23.206-270.579c0.356-4.15-2.719-7.802-6.869-8.158
	C361.329,182.508,357.674,185.579,357.317,189.729z"/>
<path d="M248.459,190.373v270.579c0,4.165,3.376,7.541,7.541,7.541c4.165,0,7.541-3.376,7.541-7.541V190.373
	c0-4.165-3.376-7.541-7.541-7.541C251.835,182.832,248.459,186.208,248.459,190.373z"/>
<g>
</g>
<g>
</g>
<g>
</g>
<g>
</g>
<g>
</g>
<g>
</g>
<g>
</g>
<g>
</g>
<g>
</g>
<g>
</g>
<g>
</g>
<g>
</g>
<g>
</g>
<g>
</g>
<g>
</g>
</svg>
