<?xml version="1.0" encoding="iso-8859-1"?>
<!-- Generator: Adobe Illustrator 19.0.0, SVG Export Plug-In . SVG Version: 6.00 Build 0)  -->
<svg version="1.1" id="Capa_1" xmlns="http://www.w3.org/2000/svg" xmlns:xlink="http://www.w3.org/1999/xlink" x="0px" y="0px"
	 viewBox="0 0 457.575 457.575" style="enable-background:new 0 0 457.575 457.575;" xml:space="preserve">
<path style="fill:#F8CF26;" d="M120.083,85.351L310.187,1.839c10.408-4.623,22.612-0.243,27.704,9.944l6.896,13.792l-182.32,79.272
	L120.083,85.351z"/>
<path style="fill:#F9C764;" d="M176.787,121.575c0-22.091-17.909-40-40-40s-40,17.909-40,40s17.909,40,40,40h8.336"/>
<path style="fill:#F29200;" d="M144.787,121.575h208c4.418,0,8,3.582,8,8v16c0,4.418-3.582,8-8,8h-208c-4.418,0-8-3.582-8-8v-16
	C136.787,125.156,140.369,121.575,144.787,121.575z"/>
<path style="fill:#F8CF26;" d="M144.787,153.575l8,192l32,16l8,96h152l8-304"/>
<circle style="fill:#333333;" cx="168.787" cy="417.575" r="40"/>
<g>
</g>
<g>
</g>
<g>
</g>
<g>
</g>
<g>
</g>
<g>
</g>
<g>
</g>
<g>
</g>
<g>
</g>
<g>
</g>
<g>
</g>
<g>
</g>
<g>
</g>
<g>
</g>
<g>
</g>
</svg>
